PathFileType	4	(X/Y/Z)	C:/Users/beibeiliu/ov580/test_trc/User3\sequence.33_training_dense_right.trc
DataRate	CameraRate	NumFrames	NumMarkers	Units	OrigDataRate	OrigDataStartFrame	OrigNumFrames
120	120	20	19	mm	120	30	59
Frame#	Time	ThumbCMC			ThumbMCP			ThumbIP			ThumbTip			IndexMCP			IndexPIP			IndexTip			MiddleMCP			MiddlePIP			MiddleTip			RingMCP			RingPIP			RingTip			PinkyMCP			PinkyPIP			PinkyTip			BackHand1			BackHand2			BackHand3	
		X0	Y0	Z0	X1	Y1	Z1	X2	Y2	Z2	X3	Y3	Z3	X4	Y4	Z4	X5	Y5	Z5	X6	Y6	Z6	X7	Y7	Z7	X8	Y8	Z8	X9	Y9	Z9	X10	Y10	Z10	X11	Y11	Z11	X12	Y12	Z12	X13	Y13	Z13	X14	Y14	Z14	X15	Y15	Z15	X16	Y16	Z16	X17	Y17	Z17	X18	Y18	Z18	
29	0.241667	168.271	10.9651	-3.49278	161.243	22.2544	-32.238	155.587	25.4498	-64.6969	148.432	16.3249	-86.8438	164.815	-10.8386	-80.9318	139.589	-5.32596	-92.9018	113.233	0.221795	-75.433	159.7	-30.571	-81.6069	127.714	-24.7153	-85.9541	106.826	-12.2583	-53.9441	156.264	-48.7009	-69.5869	124.908	-41.3465	-75.7478	112.186	-27.3856	-48.3431	154.128	-64.0653	-56.285	126.848	-58.5323	-67.5185	110.43	-44.9718	-49.2789	187.412	-47.3779	-21.9703	188.1	-47.4826	11.4083	191.986	-11.2842	-8.38622	
30	0.25	156.511	12.5669	-5.45538	142.079	20.6935	-32.169	130.362	21.5468	-57.9948	121.316	15.6039	-78.1685	157.271	-4.77251	-78.4772	128.05	-9.72696	-90.3749	102.832	-7.05604	-74.6715	153.442	-29.0609	-79.5655	119.75	-28.1445	-84.774	100.661	-23.4287	-52.0409	151.858	-48.2345	-71.2891	121.187	-44.6357	-75.3047	108.129	-36.8562	-42.5758	153.032	-62.2549	-57.1356	127.466	-58.9978	-66.9645	109.773	-49.1125	-48.1816	184.187	-44.0643	-21.4205	185.665	-42.0402	7.84002	185.745	-8.53158	-8.66019	
31	0.258333	139.675	12.6552	-1.02258	119.268	17.2667	-29.1242	105.224	18.6101	-51.7319	93.0651	13.6082	-73.7956	147.468	-2.36357	-74.7203	117.353	-8.53808	-91.507	91.7483	-17.0874	-75.4459	147.786	-23.4893	-81.4147	116.817	-31.6211	-87.8778	92.0117	-32.5069	-54.5324	149.963	-40.9318	-72.8896	120.889	-49.0708	-76.7923	103.846	-43.8511	-51.3713	156.022	-59.1451	-57.5842	131.691	-61.0318	-68.9494	110.455	-53.7231	-49.4875	180.015	-31.5514	-22.7325	184.617	-29.8165	9.39043	174.412	-2.57321	-8.17463	
32	0.266667	121.367	14.5025	5.71149	99.8041	13.9046	-23.7149	83.857	14.2114	-48.0397	75.1251	5.46737	-68.7928	135.464	9.12882	-71.8942	108.324	-3.52134	-93.6036	88.4389	-20.4636	-85.3488	145.264	-8.4546	-77.9278	117.051	-23.5973	-94.383	95.0308	-45.1197	-70.9837	154.765	-26.26	-72.5864	131.216	-41.299	-86.5589	109.76	-53.595	-61.9447	164.415	-41.9796	-57.6434	145.896	-56.8772	-74.7771	119.06	-58.5954	-57.3705	178.431	-15.3946	-20.4508	180.778	-18.0477	7.92929	160.749	10.4713	-8.44333	
33	0.275	109.832	9.52905	6.26645	87.8997	5.80828	-15.6748	71.461	2.32255	-40.6318	62.4667	-3.65177	-65.281	119.492	18.6647	-73.5028	106.266	3.68454	-95.8051	93.61	-23.4467	-98.4716	143.016	4.95579	-77.2678	124.037	-11.3968	-102.174	104.302	-41.7687	-95.6484	157.108	-7.63452	-76.2341	144.754	-25.4115	-95.2758	127.956	-50.193	-86.2067	171.457	-21.0886	-60.889	162.511	-36.4047	-81.5234	137.59	-57.6379	-77.2707	171.553	6.55024	-19.6729	173.502	3.77099	6.83823	142.557	22.6417	-2.23392	
34	0.283333	106.569	8.30014	2.47442	83.6201	2.33841	-19.7406	72.1598	-4.06817	-40.5658	58.8429	-10.4191	-64.5092	117.714	22.1827	-73.0903	101.968	9.39614	-101.181	96.9367	-13.455	-111.534	135.182	20.3068	-81.9617	128.68	5.51147	-107.157	117.585	-30.7151	-117.176	155.929	11.4747	-74.9172	153.485	-1.78953	-99.4585	138.805	-32.7281	-108.501	175.262	-1.91741	-61.1679	175.282	-14.4951	-84.8404	160.491	-35.463	-95.3446	166.712	18.0224	-19.2227	168.42	17.0448	9.18082	134.9	28.6974	-6.29385	
35	0.291667	107.856	10.8459	1.95015	85.005	3.38798	-24.5556	68.7626	-3.88049	-44.4736	63.2606	-11.8383	-65.5637	112.798	28.7458	-79.0125	108.901	18.4956	-103.035	99.8874	0.0693987	-122.09	139.526	29.3496	-86.5912	135.285	18.3824	-113.96	131.92	-8.56509	-135.08	162.029	21.8748	-76.1001	157.111	14.271	-106.37	155.638	-11.23	-125.882	179.946	11.7256	-64.7554	184.113	4.56301	-84.1249	180.487	-15.6234	-104.849	162.889	31.0567	-22.9635	167.991	28.1004	8.02829	135.908	34.9734	-9.30674	
36	0.3	108.897	12.9698	-6.09929	89.4237	2.16052	-24.2234	69.9327	-5.35249	-50.5207	60.7609	-14.7784	-66.151	119.376	28.198	-82.9188	108.284	21.5728	-107.709	106.957	7.91991	-129.422	140.508	30.9554	-89.5991	141.168	24.0739	-116.164	136.094	6.49497	-147.6	164.169	25.471	-78.8865	165.101	21.3428	-109.366	164.88	6.49629	-133.945	186.475	13.8161	-62.3459	195.361	9.96418	-89.8269	196.474	1.99189	-107.083	164.455	31.9623	-27.6581	167.066	34.5172	-1.66608	135.709	36.5918	-11.8976	
37	0.308333	112.523	8.82222	-5.08364	89.3425	-2.22993	-24.7063	69.8448	-12.2684	-49.9847	60.1693	-22.6435	-65.0557	121.717	18.5604	-84.3718	114.706	14.1368	-109.702	104.449	5.01325	-133.527	147.19	23.449	-92.3858	148.299	17.9995	-119.483	145.981	7.02429	-150.984	168.888	19.7588	-80.934	170.393	17.2131	-110.632	171.113	10.0143	-134.263	192.001	8.96029	-65.0794	201.107	6.75007	-87.8813	206.143	1.75325	-109.21	168.311	29.7989	-30.3166	172.64	33.4776	-5.68999	137.237	32.769	-22.0217	
38	0.316667	112.654	5.9149	-5.51636	91.5687	-6.99585	-24.8917	72.1122	-18.4286	-47.8371	61.4717	-30.0943	-59.2226	122.691	8.7665	-88.8929	113.09	3.85259	-111.866	107.994	-4.62812	-135.452	152.252	12.8559	-92.0305	147.478	8.12951	-118.808	144.852	-0.348344	-151.702	169.263	9.97439	-85.0138	174.429	8.86127	-106.309	174.229	2.49109	-133.722	191.91	0.546755	-62.8757	203.175	-1.80247	-80.9674	209.497	-4.78824	-102.97	169.151	21.3751	-32.2477	170.525	28.7174	-7.94796	139.468	28.7026	-23.6976	
39	0.325	109.396	5.30849	-5.29635	91.9164	-8.70909	-28.6992	76.4098	-20.7779	-48.0215	63.408	-32.5959	-58.4382	122.173	6.87054	-82.1445	112.457	2.93853	-108.168	106.074	-5.67579	-133.006	148.61	11.2175	-93.5511	149.426	5.24406	-121.426	148.36	-4.62468	-151.309	173.186	7.06355	-84.874	173.747	5.48312	-108.037	175.71	-1.9333	-135.003	190.036	-1.38629	-64.2233	203.829	-4.07926	-83.2716	212.638	-8.64054	-104.663	172.848	19.473	-33.1778	174.619	26.3904	-4.41175	138.662	27.3267	-23.8208	
40	0.333333	109.976	6.1023	-8.06839	92.7771	-8.23289	-25.8548	74.3954	-20.1185	-45.2673	63.8628	-31.0039	-61.1448	121.675	9.37639	-83.1293	115.677	3.40126	-109.158	108.174	-6.32586	-135.708	152.754	12.5081	-91.0403	148.229	7.34609	-116.848	147.12	-2.08669	-149.918	174.034	7.31091	-79.8119	173.967	6.61842	-106.82	178.493	0.336517	-132.09	194.593	-1.03476	-62.3267	205.313	-3.86718	-82.7489	214.355	-7.86576	-102.608	170.054	20.4123	-33.1926	173.744	28.7097	-5.03332	141.578	25.9038	-21.5809	
41	0.341667	111.024	8.3908	-7.80794	90.1043	-4.39355	-24.0139	74.8122	-16.0011	-48.1541	60.6845	-27.84	-64.3611	119.107	12.4227	-84.3074	112.797	5.79151	-110.501	105.173	-2.64394	-132.02	148.904	15.7298	-94.4208	150.051	9.83359	-119.844	148.539	-0.754778	-151.423	172.229	10.7639	-83.8668	171.584	10.0447	-105.562	176.771	0.952936	-135.81	192.503	0.433591	-60.7656	200.903	-1.69416	-86.3659	212.39	-6.40242	-102.181	170.716	24.0708	-31.4042	172.559	27.319	-7.24877	137.132	29.2519	-20.9759	
42	0.35	111.36	9.28483	-9.09029	91.1601	-3.4967	-24.8232	71.5808	-14.3295	-48.3414	58.2315	-25.3188	-65.1088	121.525	12.2197	-88.369	114.118	6.39382	-109.428	106.652	-2.43843	-132.392	150.903	15.9326	-94.7207	149.505	11.2645	-117.415	145.73	1.63626	-149.561	167.373	11.0257	-82.3062	171.192	9.99246	-108.234	171.554	3.4332	-132.262	192.142	1.14	-61.7591	201.455	-0.286177	-81.6723	210.438	-5.12033	-104.743	169.495	24.3231	-31.5455	173.144	28.1537	-7.42901	137.095	29.2803	-24.1831	
43	0.358333	108.082	8.74975	-7.55435	91.8631	-4.32885	-25.7706	73.155	-14.7876	-46.0012	61.6315	-25.2594	-61.6895	122.848	12.4917	-83.5159	109.747	6.26082	-112.668	104.758	-1.83285	-132.109	148.46	14.6753	-89.2574	144.083	10.9342	-118.865	142.489	1.87369	-147.372	168.065	11.4854	-80.4084	169.834	8.93869	-109.853	175.343	1.17952	-132.788	191.934	1.74908	-63.4609	197.909	-0.997351	-83.9521	208.585	-6.51519	-104.413	168.19	23.4317	-30.8538	171.784	28.7399	-6.72241	140.099	28.5886	-19.5899	
44	0.366667	111.657	6.25571	-10.3709	92.0581	-4.80614	-24.9332	73.3843	-15.6093	-45.2634	60.0007	-26.1777	-61.8137	119.069	12.7773	-87.4863	109.695	6.56289	-109.015	107.629	-3.54821	-134.438	146.671	14.2495	-92.2188	147.15	9.23056	-120.027	142.882	-0.249776	-149.478	168.428	9.78221	-84.5523	169.574	7.95393	-110.579	174.157	-0.949317	-133.527	186.772	-0.647774	-64.5028	199.367	-3.73779	-85.5464	204.498	-7.90442	-105.996	169.164	23.4043	-35.1352	171.953	25.9497	-2.71838	137.367	28.2232	-18.9886	
45	0.375	110.274	5.50784	-8.81803	88.7201	-5.59274	-27.0361	68.5765	-14.8331	-46.3055	55.271	-25.7327	-62.6312	121.192	11.8217	-82.9261	107.649	4.93658	-108.478	102.487	-5.70515	-134.451	144.433	13.8429	-90.7848	142.089	9.0023	-116.783	142.145	-2.90672	-148.889	165.019	7.8966	-79.6684	168.293	5.5873	-109.448	171.487	-1.96682	-134.076	189.614	-1.44457	-64.9793	194.669	-5.04594	-82.4751	209.065	-10.0276	-104.203	165.309	20.8891	-32.0913	173.601	26.3068	-1.99395	133.764	27.6859	-21.5217	
46	0.383333	105.139	4.28982	-7.34326	87.8653	-6.64757	-25.2422	65.9118	-17.3599	-47.409	57.2882	-27.2172	-59.352	114.96	8.7194	-82.4387	108.653	2.25768	-108.702	102.651	-9.26036	-135.164	144.107	10.5157	-89.6995	140.622	5.28864	-118.523	140.01	-6.53713	-147.8	162.911	5.94401	-79.4081	165.746	2.92327	-108.675	168.558	-5.84524	-133.998	189.546	-3.57519	-64.6671	198.423	-9.00357	-85.9318	202.743	-12.8635	-104.626	168.426	16.8552	-35.0609	171.546	23.7888	-6.29504	136.249	25.1834	-20.4669	
47	0.391667	107.865	3.0894	-4.09081	83.0739	-7.56298	-23.5953	64.1093	-17.3696	-42.9786	56.6481	-28.6469	-61.7124	112.85	6.87098	-80.4457	108.228	0.350059	-109.55	97.6613	-9.56461	-130.395	144.945	7.96297	-91.0402	140.034	2.14061	-120.695	135.867	-8.66093	-149.941	162.945	3.51966	-78.6536	167.599	-0.0201739	-108.992	167.202	-8.36206	-131.791	185.57	-6.54075	-63.4368	191.55	-9.73726	-83.9629	200.787	-13.5062	-103.494	166.949	17.1855	-31.0582	167.177	22.7187	-1.5811	133.56	23.9501	-16.1717	
48	0.4	103.816	2.74653	-3.48019	81.6283	-7.74981	-20.4749	63.2768	-18.5056	-43.8631	53.9621	-28.9336	-56.525	113.263	6.36635	-85.6117	102.483	1.02562	-104.906	99.7972	-9.60217	-128.704	143.763	7.18322	-90.391	137.84	2.15558	-117.139	134.97	-8.97805	-147.777	159.879	3.85722	-79.6364	164.443	0.647564	-103.902	167.922	-10.8097	-134.758	184.002	-7.8541	-60.5332	195.808	-10.8867	-80.7959	199.841	-14.5972	-101.884	165.211	15.4825	-28.4066	168.356	21.8954	-3.53309	132.205	23.6306	-16.6847	
